# xmcd
#
# Track frame offsets:
#	150
#	11910
#	22198
#	32441
#	43052
#	53682
#	70411
#	85725
#	97594
#	111021
#	122494
#	135622
#	151420
#	173301
#	189591
#	205146
#	216212
#	228647
#	241378
#	251810
#
# Disc length: 3525 seconds
#
# Revision: 2
# Processed by: cddbd v1.5.2PL0 Copyright (c) Steve Scherf et al.
# Submitted via: audiograbber 1.83.01
#
DISCID=090dc314
DTITLE=Various Artist - 100 Hits - Classic Country [Box-Set] [CD 5)
DYEAR=2012
DGENRE=Country
TTITLE0=Wanda Jackson - Cold, Cold Heart
TTITLE1=Tennessee Ernie Ford - King Of The Road
TTITLE2=Hank Thompson - Wake Up, Irene
TTITLE3=Tex Williams - He'll Have To Go
TTITLE4=Faron Young - If You Ain't Lovin' (You Ain't Livin')
TTITLE5=Joe South - Walk A Mile In My Shoes
TTITLE6=Tanya Tucker - If It Don't Come Easy
TTITLE7=Wild Rose - Go Down Swingin'
TTITLE8=Mel McDaniel - Baby's Got Her Blue Jeans On
TTITLE9=Linda Davis - Do I Do It To You Too
TTITLE10=Kenny Dale - Only Love Can Break A Heart
TTITLE11=Suzy Bogguss - Somewhere Between
TTITLE12=Deana Carter - Strawberry Wine
TTITLE13=Lacy J Dalton - Black Coffee
TTITLE14=George Ducas - Tricky Moon
TTITLE15=Chris LeDoux - So You Want To Be A Cowboy
TTITLE16=Skeets McDonald - Don't Let The Stars Get In Your Eyes
TTITLE17=Freddie Fender - Wasted Days And Wasted Nights
TTITLE18=Ferlin Husky - Wings Of A Dove
TTITLE19=Tex Ritter - High Noon (Do Not Forsake Me)
EXTD=
EXTT0=
EXTT1=
EXTT2=
EXTT3=
EXTT4=
EXTT5=
EXTT6=
EXTT7=
EXTT8=
EXTT9=
EXTT10=
EXTT11=
EXTT12=
EXTT13=
EXTT14=
EXTT15=
EXTT16=
EXTT17=
EXTT18=
EXTT19=
PLAYORDER=
